<svg fill="none" xmlns="http://www.w3.org/2000/svg" viewBox="0 0 86 61" class="NavLogo">
    <path d="M83.054 13.537a36.612 36.612 0 01-3.248-3.412c-2.188-2.558-4.236-5.384-6.855-7.533C70.647.698 68.058-.572 65.394.26c-4.206 1.296-5.459 5.785-7.027 9.394a107.582 107.582 0 01-12.75 21.906 25.194 25.194 0 00-1.754 2.6c.167.125.323.248.46.348.977.709 1.897 1.49 2.754 2.34a25.798 25.798 0 002.125 1.856c4.087-.676 11.392 6.46 11.392 6.46s2.033-1.574 3.771-2.87C73.282 35.637 86 15.773 86 15.773a34.386 34.386 0 01-2.946-2.236zM65.04 5.603a2.04 2.04 0 01.52-1.519 1.996 1.996 0 011.858-.568 1.921 1.921 0 011.508 2.298A1.953 1.953 0 0167 7.334a1.487 1.487 0 01-1.234-.28 1.827 1.827 0 01-.724-1.451zm12.183 12.869a86.126 86.126 0 01-5.317 8.633c-2.018 2.858-4.53 5.157-6.952 7.663a.187.187 0 11-.286-.241c2.107-2.6 4.325-5.069 6.175-7.872 1.85-2.803 3.486-5.807 5.22-8.714.413-.69 1.554-.197 1.16.53zM46.05 38.087a22.498 22.498 0 01-2.886-2.42c-.116-.116-.253-.242-.394-.372a6.296 6.296 0 00-.561.72c-1.61 2.314-3.579 4.423-5.41 6.565-2.23 2.6-4.567 5.161-6.781 7.797a20.643 20.643 0 01-3.062 2.885c-1.486 1.044-4.421 3.093-2.6 5.198a4.564 4.564 0 001.917 1.114c1.207.457 2.404 1.04 3.652 1.382.855.237 1.858-.212 1.53-1.26-.252-.823.26-1.455.744-2.041.743-.884 1.438-1.82 2.2-2.696 1.623-1.879 3.47-3.505 5.201-5.269a58.515 58.515 0 004.56-5.142 52.357 52.357 0 001.727-2.324c.628-.877 1.04-2.054 1.965-2.674a16.645 16.645 0 00-1.802-1.463zM32.466 53.388a.98.98 0 01-.884 1.062.989.989 0 01-1.066-.894.988.988 0 01.895-1.062.988.988 0 011.067.895h-.012zm3.913-3.831c-.773.917-2.192-.279-1.423-1.192.769-.913 2.2.275 1.423 1.192zm3.652-4.7a.9.9 0 11-1.792.148.9.9 0 011.792-.149zM0 15.806s12.726 19.865 21.636 26.522a301.09 301.09 0 013.77 2.87s7.29-7.136 11.378-6.46c.74-.58 1.45-1.2 2.125-1.857a23.668 23.668 0 012.753-2.339c.138-.1.294-.223.461-.349a25.195 25.195 0 00-1.754-2.6A107.236 107.236 0 0127.633 9.655c-1.569-3.61-2.82-8.099-7.013-9.395-2.68-.83-5.27.438-7.575 2.34-2.6 2.15-4.663 4.975-6.855 7.533a36.128 36.128 0 01-3.247 3.412A33.964 33.964 0 010 15.806zm20.22-8.75a1.486 1.486 0 01-1.219.296 1.959 1.959 0 01-1.932-1.519 1.924 1.924 0 011.509-2.316 1.993 1.993 0 011.858.568 2.06 2.06 0 01.523 1.518 1.827 1.827 0 01-.739 1.452zM9.932 17.94c1.735 2.908 3.344 5.89 5.224 8.715 1.88 2.825 4.068 5.276 6.171 7.875a.187.187 0 01-.159.307.187.187 0 01-.127-.066c-2.419-2.51-4.93-4.808-6.952-7.667a86.788 86.788 0 01-5.313-8.633c-.394-.727.743-1.221 1.156-.53z" fill="currentColor"></path> 
    <path d="M38.118 39.532c.921.62 1.337 1.797 1.965 2.673a47.007 47.007 0 001.724 2.324 57.966 57.966 0 004.563 5.143c1.742 1.764 3.585 3.39 5.202 5.269.743.876 1.449 1.811 2.2 2.695.493.587 1.01 1.218.742 2.042-.323 1.047.68 1.485 1.535 1.259 1.245-.342 2.441-.925 3.649-1.381a4.552 4.552 0 001.92-1.114c1.825-2.105-1.114-4.155-2.6-5.198a20.617 20.617 0 01-3.058-2.885c-2.23-2.633-4.548-5.176-6.785-7.797-1.828-2.143-3.797-4.252-5.41-6.565a5.571 5.571 0 00-.56-.705c-.142.13-.276.256-.372.37a22.801 22.801 0 01-2.891 2.422c-.64.46-1.237.943-1.824 1.448zm15.757 13.192a.992.992 0 01.717-.227c.26.026.499.15.67.346a.982.982 0 11-1.731.55c.022-.26.146-.5.344-.67zm-2.838-4.355c.769.913-.65 2.108-1.42 1.191-.769-.917.654-2.108 1.423-1.195l-.003.004zm-4.756-4.122a.9.9 0 011.486.765.899.899 0 01-1.585.503.9.9 0 01.11-1.268h-.011z" fill="currentColor"></path>
</svg>